<svg width="231" height="282" viewBox="0 0 231 282" fill="none" xmlns="http://www.w3.org/2000/svg">
<g clip-path="url(#clip0_1110_325)">
<path d="M231 66.9296V200.8L218.046 208.31L168.669 236.927C168.61 236.463 168.561 235.999 168.524 235.535C167.734 225.608 171.572 214.817 180.247 202.559C183.875 197.433 189.519 194.811 194.793 191.752C198.227 189.761 201.657 187.77 205.091 185.784V81.9503L115.503 30.0306L25.9139 81.9503V185.784L115.503 237.704L138.772 224.221C139.702 223.827 140.643 223.52 141.605 223.304C142.594 223.088 143.631 222.975 144.696 222.975C147.996 222.975 151.248 224.027 153.624 225.856C157.198 228.613 159.51 233.533 160.483 240.472C160.536 240.839 160.579 241.211 160.622 241.589L128.457 260.23L115.503 267.735L102.543 260.23L12.9543 208.31L0 200.8V66.9296L12.9543 59.4246L102.543 7.50496L115.503 0L128.457 7.50496L218.046 59.4246L231 66.9296Z" fill="#0E2A84"/>
<path d="M202.151 122.939C177.629 119.885 158.01 121.218 144.475 123.047C114.331 127.12 101.527 135.413 76.097 134.609C55.8862 133.967 39.5401 127.957 28.8488 122.944V183.74L115.503 233.954C119.061 231.893 122.587 229.757 126.183 227.766C130.973 225.111 135.461 221.34 140.917 220.142C145.84 219.058 151.56 220.18 155.586 223.288C160.714 227.237 162.81 233.841 163.675 240.024C164.444 245.511 164.337 251.095 163.923 256.604C163.589 261.088 161.45 265.156 161.058 269.623C160.681 273.934 161.294 279.642 164.073 281.326C166.852 283.004 169.733 281.256 171.163 279.453C175.313 274.215 172.502 266.202 171.367 260.386C169.766 252.169 165.976 244.189 165.309 235.799C164.294 223.056 170.464 210.797 177.619 200.686C183.316 192.636 193.787 188.59 202.151 183.745V122.95V122.939Z" fill="#52D093"/>
<path d="M76.6721 141.111C85.3746 140.744 93.9158 139.638 102.36 137.658C116.449 134.339 130.521 130.309 145.056 129.554C136.536 131.399 128.118 133.325 119.717 135.57C105.806 139.303 91.1422 142.891 76.6775 141.116L76.6721 141.111Z" fill="white"/>
<path d="M76.6721 141.111C85.3585 140.965 93.9534 139.848 102.398 137.836C110.848 135.839 119.206 133.384 127.71 131.528C144.765 127.876 162.321 126.101 179.731 127.708C162.385 127.859 145.093 129.926 128.172 133.649C111.321 137.372 94.1953 142.929 76.6775 141.116L76.6721 141.111Z" fill="white"/>
</g>
<defs>
<clipPath id="clip0_1110_325">
<rect width="231" height="282" fill="white"/>
</clipPath>
</defs>
</svg>
