<?xml version="1.0" encoding="utf-8"?>
<!-- Generator: Adobe Illustrator 28.2.0, SVG Export Plug-In . SVG Version: 6.00 Build 0)  -->
<svg version="1.1" id="Warstwa_2_00000053533118480528195640000016902560802813815704_"
	 xmlns="http://www.w3.org/2000/svg" xmlns:xlink="http://www.w3.org/1999/xlink" x="0px" y="0px" viewBox="0 0 850.2 960"
	 style="enable-background:new 0 0 850.2 960;" xml:space="preserve">
<style type="text/css">
	.st0{fill:#F7F7F7;}
</style>
<path class="st0" d="M648.8,192.6c-42.3,59-95.2,99.9-157.8,127.3c-21.7-5.9-44-9.1-65.9-8.9c-21.9-0.2-44.2,2.9-65.9,8.9
	c-62.5-27.4-115.5-68.3-157.8-127.3c-12.8,32.1-62,143-2.9,297.9c0,0-18.9,80.9,15.8,150.4c0,0,50.3-22.7,90.1,9.2
	c41.7,33.9,28.4,66.4,57.8,94.4c25.2,25.8,62.9,25.8,62.9,25.8s37.7,0,62.9-25.8c29.4-28,16.2-60.5,57.8-94.4
	c39.8-32,90.1-9.2,90.1-9.2c34.7-69.5,15.8-150.4,15.8-150.4C710.8,335.6,661.6,224.7,648.8,192.6z M229.9,469
	c-32.1-65.9-41-156.4-20.6-227.9c26.8,67.8,63.2,98.3,106.6,130.4C297.4,409.7,262.9,445.7,229.9,469z M322.3,585.1
	c-25.2-11.2-30.7-33.3-30.7-33.3c34.5-21.7,85.2-5.1,86.8,46.3C351.7,582,342.9,594.2,322.3,585.1z M425.1,767.4
	c-18.1,0-32.8-12.9-32.8-28.9s14.7-28.9,32.8-28.9s32.8,12.9,32.8,28.9C457.9,754.5,443.2,767.4,425.1,767.4z M527.9,585.1
	c-20.6,9-29.4-3.2-56.1,13c1.6-51.4,52.3-68,86.8-46.3C558.6,551.9,553.2,574,527.9,585.1z M620.3,469c-33-23.3-67.5-59.3-85.9-97.5
	c43.4-32.1,79.8-62.6,106.6-130.4C661.3,312.7,652.4,403.2,620.3,469z"/>
</svg>
